<?xml version="1.0" encoding="utf-8"?>
<!-- Generator: Adobe Illustrator 27.7.0, SVG Export Plug-In . SVG Version: 6.00 Build 0)  -->
<svg version="1.1" id="Camada_1" xmlns="http://www.w3.org/2000/svg" xmlns:xlink="http://www.w3.org/1999/xlink" x="0px" y="0px"
	 viewBox="0 0 512 512" style="enable-background:new 0 0 512 512;" xml:space="preserve">
<style type="text/css">
	.st0{fill:none;stroke:#6E83A1;stroke-width:2;}
	.st1{fill:none;stroke:#434952;stroke-width:2;}
	.st2{fill:none;stroke:#59859F;stroke-width:2;}
	.st3{fill:none;stroke:#6E8DA1;stroke-width:2;}
	.st4{fill:none;stroke:#51698D;stroke-width:2;}
	.st5{fill:none;stroke:#5C769C;stroke-width:2;}
	.st6{fill:none;stroke:#799AAF;stroke-width:2;}
	.st7{fill:none;stroke:#6492AD;stroke-width:2;}
	.st8{fill:none;stroke:#8FD6FC;stroke-width:2;}
	.st9{fill:none;stroke:#BDE7FD;stroke-width:2;}
	.st10{fill:none;stroke:#B9DFC1;stroke-width:2;}
	.st11{fill:none;stroke:#D1EFFF;stroke-width:2;}
	.st12{fill:none;stroke:#A7ABB0;stroke-width:2;}
	.st13{fill:none;stroke:#ACBDED;stroke-width:2;}
	.st14{fill:none;stroke:#87BAEB;stroke-width:2;}
	.st15{fill:none;stroke:#7CA3DD;stroke-width:2;}
	.st16{fill:#8EAFE2;}
	.st17{fill:#383C43;}
	.st18{fill:#4E5660;}
	.st19{fill:#7ACEFA;}
	.st20{fill:#A3DEFE;}
	.st21{fill:#FFFFFF;}
	.st22{fill:#6A96D7;}
	.st23{fill:#F7EF87;}
	.st24{fill:#B49CDC;}
</style>
<g>
	<g>
		<path vector-effect="non-scaling-stroke" class="st0" d="M266.6,90.3l-21.3,0"/>
		<path vector-effect="non-scaling-stroke" class="st1" d="M169.5,90.2c-2.5,12.2-4.2,24.5-5.3,36.8"/>
		<path vector-effect="non-scaling-stroke" class="st2" d="M164.2,127c-35.3,0-70.6,0-105.9,0c-9,0-16.7,3.6-20,12.2
			c-1,2.7-1.6,7.6-1.5,14.7c0,76.2,0,152.4,0,228.7c0,5.5,0.5,9.5,1.4,12.2c2,5.4,5.5,9.2,10.8,11.1c2.8,1.1,8.1,1.6,15.9,1.6
			c46.7,0,93.5,0,140.2,0"/>
		<path vector-effect="non-scaling-stroke" class="st3" d="M205,407.5c0.7,0,0.9-0.1,0.6-0.2"/>
		<path vector-effect="non-scaling-stroke" class="st1" d="M205.6,407.3c6.5,13,14.6,25.2,24.2,36.9"/>
		<path vector-effect="non-scaling-stroke" class="st4" d="M189.1,444.2l-69.8,0"/>
		<path vector-effect="non-scaling-stroke" class="st5" d="M392.8,444.2l-69.9,0"/>
		<path vector-effect="non-scaling-stroke" class="st6" d="M205.6,407.3c81.2-0.1,162.4-0.1,243.5,0c6.4,0,11-0.5,13.6-1.5
			c9.3-3.5,12.4-11.4,12.4-21c0-78,0-155.9,0-233.9c0-4.9-0.5-8.6-1.4-11.1c-3.5-9.4-11.3-12.6-21-12.6c-96.1,0-192.3,0-288.7,0"/>
		<path vector-effect="non-scaling-stroke" class="st7" d="M164.1,127.2c0-0.1,0.1-0.1,0.1-0.2"/>
		<path vector-effect="non-scaling-stroke" class="st8" d="M164.1,127.2c-3,29.1-3.8,58.4-2.3,88.1"/>
		<path vector-effect="non-scaling-stroke" class="st7" d="M161.9,215.3c-4.4,5.4-6.3,11.6-5.7,18.7"/>
		<path vector-effect="non-scaling-stroke" class="st9" d="M156.2,234c-6.8,0.5-13.1,2.6-19.1,6.3c-11,7-17,21-10.1,33.1
			c8.2,14.3,26.8,19.4,42.3,15.9"/>
		<path vector-effect="non-scaling-stroke" class="st8" d="M169.4,289.4c6.1,39.7,17.1,79.9,35,115.9c0.3,0.7,0.5,1.4,0.6,2.2"/>
		<path vector-effect="non-scaling-stroke" class="st10" d="M159.7,342c0-7.8-6.4-14.2-14.2-14.2c0,0,0,0,0,0H97.2
			c-7.8,0-14.2,6.4-14.2,14.2c0,0,0,0,0,0v19.4c0,7.8,6.4,14.2,14.2,14.2c0,0,0,0,0,0h48.3c7.8,0,14.2-6.4,14.2-14.2l0,0V342"/>
		<path vector-effect="non-scaling-stroke" class="st11" d="M169.4,289.4c5.1-1.1,9.6-3.1,13.7-6c16.6-11.5,15.8-32.3-1.1-43.2
			c-3.7-2.4-7.6-4.1-11.9-5.1"/>
		<path vector-effect="non-scaling-stroke" class="st6" d="M170.2,235.1c0.7-2.7,0.7-5.9,1.9-8c4.4-8.3,16.2-5.9,17.7,3.2
			c0.4,2.6,0.8,4.3,1.1,4.9c4.3,7.6,15.1,2.8,14-5.7c-3-22.1-27.5-30-43-14.1"/>
		<path vector-effect="non-scaling-stroke" class="st11" d="M341.8,235c-7.8,2.3-15.1,6.1-20,12.7c-5.6,7.5-6.9,17.2-2.3,25.5
			c10.1,18.5,38,21.9,54.8,11.2c25.6-16.3,11.6-45.6-13.9-49.7c-2.3-0.4-3.8-0.7-4.6-0.9"/>
		<path vector-effect="non-scaling-stroke" class="st6" d="M355.8,233.7c0.9-8.6-2.5-16.3-9.4-21.6c-15.9-12.3-38.6-1.2-39.1,18.9
			c-0.2,9.7,13.4,10.6,14.8,1.3c0.4-2.8,0.7-4.3,0.8-4.5c2.7-6.9,12.6-7.8,16.5-1.6c1.6,2.5,1.6,5.8,2.4,8.8"/>
		<path vector-effect="non-scaling-stroke" class="st12" d="M355.8,233.7c-2.9,6.3-10.1,7-14,1.3"/>
		<path vector-effect="non-scaling-stroke" class="st6" d="M232.6,256.4c12.6,13.3,32.2,14.3,46,0.8c7.8-7.6-2.6-18-9.6-11.5
			c-6.5,6.1-13.9,8.7-22.1,3.5c-2.1-1.3-3.9-4.3-6.7-5.1C232.8,241.8,227.4,250.9,232.6,256.4"/>
		<path vector-effect="non-scaling-stroke" class="st13" d="M294.3,342c0-7.8-6.3-14.2-14.1-14.2h0l-48.3-0.1
			c-7.8,0-14.2,6.3-14.2,14.1l0,19.5c0,7.8,6.3,14.2,14.1,14.2c0,0,0,0,0,0l48.3,0.1c7.8,0,14.2-6.3,14.2-14.1L294.3,342"/>
		<path vector-effect="non-scaling-stroke" class="st14" d="M429,341.9c0-7.8-6.4-14.2-14.2-14.2l0,0h-48.3
			c-7.8,0-14.2,6.4-14.2,14.2l0,0v19.4c0,7.8,6.4,14.2,14.2,14.2l0,0h48.3c7.8,0,14.2-6.4,14.2-14.2l0,0V341.9"/>
		<path vector-effect="non-scaling-stroke" class="st12" d="M170.2,235.1c-5.1,5.5-9.7,5.1-14-1.1"/>
		<path vector-effect="non-scaling-stroke" class="st15" d="M415.7,467.6c-0.2,0.7-0.6,1.1-1,1.1c-21.9-0.1-44.3,0-67,0.1"/>
		<path vector-effect="non-scaling-stroke" class="st15" d="M164.2,468.9l-68.5-0.2"/>
	</g>
	<g>
		<path class="st16" d="M266.6,90.3l-21.3,0C222.2,67,199,43.9,175.8,20.7c-2.1-2.1-3.4-4-3.8-5.5c-1.2-5,4.1-10.1,9.1-8.8
			c1.4,0.4,3.2,1.6,5.2,3.6c23.1,23.1,46.3,46.3,69.4,69.4c0.2,0.2,0.5,0.3,0.7,0c22.8-22.7,45.6-45.5,68.2-68.3
			c2.2-2.2,3.9-3.6,5.2-4.2c4.8-2.2,10.1,1.4,10.1,6.6c0,2.3-1,4.5-3,6.5C313.6,43.3,290.1,66.8,266.6,90.3z"/>
		<path class="st17" d="M169.5,90.2c-2.5,12.2-4.2,24.5-5.3,36.8c-35.3,0-70.6,0-105.9,0c-9,0-16.7,3.6-20,12.2
			c-1,2.7-1.6,7.6-1.5,14.7c0,76.2,0,152.4,0,228.7c0,5.5,0.5,9.5,1.4,12.2c2,5.4,5.5,9.2,10.8,11.1c2.8,1.1,8.1,1.6,15.9,1.6
			c46.7,0,93.5,0,140.2,0c0.7,0,0.9-0.1,0.6-0.2c6.5,13,14.6,25.2,24.2,36.9l-40.7,0.1l-69.8,0c-17.7-0.1-35.3-0.1-52.8,0
			c-9.6,0-16.2-0.3-20-0.9C21.2,438.9,2.2,417.8,0,391.9V140.7c3.5-24.6,21-44.8,45.6-49.5c3.7-0.7,10.3-1.1,19.9-1.1
			C100.4,90,135,90.1,169.5,90.2z"/>
		<path class="st18" d="M169.5,90.2l75.8,0.1l21.3,0c62.7,0,125.3,0,187.9,0c30.9,0,54.8,22.4,57.5,53.1v247.9
			c-2.8,25-18.1,44.8-42.6,51.1c-4.3,1.1-7.6,1.7-9.9,1.7c-22,0-44.3,0.1-66.7,0.1l-69.9,0l-93.1,0c-9.6-11.6-17.7-23.9-24.2-36.9
			c81.2-0.1,162.4-0.1,243.5,0c6.4,0,11-0.5,13.6-1.5c9.3-3.5,12.4-11.4,12.4-21c0-78,0-155.9,0-233.9c0-4.9-0.5-8.6-1.4-11.1
			c-3.5-9.4-11.3-12.6-21-12.6c-96.1,0-192.3,0-288.7,0c0-0.1,0.1-0.1,0.1-0.2C165.3,114.7,167.1,102.4,169.5,90.2z"/>
		<path class="st19" d="M164.2,127c0,0.1-0.1,0.1-0.1,0.2c-3,29.1-3.8,58.4-2.3,88.1c-4.4,5.4-6.3,11.6-5.7,18.7
			c-6.8,0.5-13.1,2.6-19.1,6.3c-11,7-17,21-10.1,33.1c8.2,14.3,26.8,19.4,42.3,15.9c6.1,39.7,17.1,79.9,35,115.9
			c0.3,0.7,0.5,1.4,0.6,2.2c-46.7,0-93.5,0-140.2,0c-7.8,0-13.1-0.5-15.9-1.6c-5.2-2-8.8-5.7-10.8-11.1c-0.9-2.6-1.4-6.7-1.4-12.2
			c0-76.2,0-152.4,0-228.7c0-7,0.5-11.9,1.5-14.7c3.3-8.6,11-12.2,20-12.2C93.6,127,128.9,127,164.2,127z M159.7,342
			c0-7.8-6.4-14.2-14.2-14.2c0,0,0,0,0,0H97.2c-7.8,0-14.2,6.4-14.2,14.2c0,0,0,0,0,0v19.4c0,7.8,6.4,14.2,14.2,14.2c0,0,0,0,0,0
			h48.3c7.8,0,14.2-6.4,14.2-14.2l0,0V342z"/>
		<path class="st20" d="M164.1,127.2c96.4,0,192.6,0,288.7,0c9.7,0,17.5,3.2,21,12.6c0.9,2.5,1.4,6.2,1.4,11.1c0,78,0,155.9,0,233.9
			c0,9.6-3.1,17.6-12.4,21c-2.7,1-7.2,1.5-13.6,1.5c-81.1-0.1-162.2-0.1-243.5,0c0.3,0.1,0.1,0.2-0.6,0.2c-0.1-0.8-0.3-1.6-0.6-2.2
			c-18-36-28.9-76.2-35-115.9c5.1-1.1,9.6-3.1,13.7-6c16.6-11.5,15.8-32.3-1.1-43.2c-3.7-2.4-7.6-4.1-11.9-5.1
			c0.7-2.7,0.7-5.9,1.9-8c4.4-8.3,16.2-5.9,17.7,3.2c0.4,2.6,0.8,4.3,1.1,4.9c4.3,7.6,15.1,2.8,14-5.7c-3-22.1-27.5-30-43-14.1
			C160.4,185.6,161.1,156.3,164.1,127.2z M341.8,235c-7.8,2.3-15.1,6.1-20,12.7c-5.6,7.5-6.9,17.2-2.3,25.5
			c10.1,18.5,38,21.9,54.8,11.2c25.6-16.3,11.6-45.6-13.9-49.7c-2.3-0.4-3.8-0.7-4.6-0.9c0.9-8.6-2.5-16.3-9.4-21.6
			c-15.9-12.3-38.6-1.2-39.1,18.9c-0.2,9.7,13.4,10.6,14.8,1.3c0.4-2.8,0.7-4.3,0.8-4.5c2.7-6.9,12.6-7.8,16.5-1.6
			C341,228.7,341,232,341.8,235z M232.6,256.4c12.6,13.3,32.2,14.3,46,0.8c7.8-7.6-2.6-18-9.6-11.5c-6.5,6.1-13.9,8.7-22.1,3.5
			c-2.1-1.3-3.9-4.3-6.7-5.1C232.8,241.8,227.4,250.9,232.6,256.4z M294.3,342c0-7.8-6.3-14.2-14.1-14.2h0l-48.3-0.1
			c-7.8,0-14.2,6.3-14.2,14.1l0,19.5c0,7.8,6.3,14.2,14.1,14.2c0,0,0,0,0,0l48.3,0.1c7.8,0,14.2-6.3,14.2-14.1L294.3,342z
			 M429,341.9c0-7.8-6.4-14.2-14.2-14.2l0,0h-48.3c-7.8,0-14.2,6.4-14.2,14.2l0,0v19.4c0,7.8,6.4,14.2,14.2,14.2l0,0h48.3
			c7.8,0,14.2-6.4,14.2-14.2l0,0V341.9z"/>
		<path class="st18" d="M170.2,235.1c-5.1,5.5-9.7,5.1-14-1.1c-0.7-7.1,1.2-13.3,5.7-18.7c15.4-15.8,40-8,43,14.1
			c1.1,8.5-9.7,13.3-14,5.7c-0.3-0.6-0.7-2.2-1.1-4.9c-1.4-9.1-13.3-11.5-17.7-3.2C170.9,229.2,170.9,232.4,170.2,235.1z"/>
		<path class="st21" d="M156.2,234c4.3,6.2,8.9,6.6,14,1.1c4.2,1.1,8.2,2.8,11.9,5.1c16.9,10.9,17.7,31.6,1.1,43.2
			c-4.1,2.8-8.7,4.8-13.7,6c-15.6,3.4-34.1-1.6-42.3-15.9c-6.9-12.1-0.9-26.1,10.1-33.1C143,236.6,149.4,234.5,156.2,234z"/>
		<path class="st22" d="M392.8,444.2l22.9,23.5c-0.2,0.7-0.6,1.1-1,1.1c-21.9-0.1-44.3,0-67,0.1l-24.8-24.7L392.8,444.2z"/>
		<path class="st22" d="M189.1,444.2l-24.9,24.7l-68.5-0.2c7.3-8.5,15.2-16.6,23.7-24.4L189.1,444.2z"/>
		<path class="st16" d="M415.7,467.6c4.1,8.2,4.7,15.9,1.8,22.8c-5.5,13.1-20.9,19.3-33.9,12.4c-2.8-1.5-6.6-4.6-11.3-9.4
			c-7.9-8-16.1-16.2-24.6-24.6c22.8-0.1,45.1-0.1,67-0.1C415.1,468.8,415.5,468.4,415.7,467.6z"/>
		<path class="st16" d="M164.2,468.9c-8.3,8.2-16.2,16.2-23.7,23.8c-5.6,5.6-9.8,9.2-12.7,10.6c-10.7,5.3-23.2,1.8-30.3-7.7
			c-5.7-7.6-6.3-16.6-1.8-26.9L164.2,468.9z"/>
	</g>
	<g>
		<path class="st18" d="M355.8,233.7c-2.9,6.3-10.1,7-14,1.3c-0.8-3-0.8-6.3-2.4-8.8c-3.9-6.2-13.8-5.3-16.5,1.6
			c-0.1,0.2-0.4,1.8-0.8,4.5c-1.4,9.3-15.1,8.4-14.8-1.3c0.5-20.1,23.1-31.2,39.1-18.9C353.3,217.4,356.7,225.1,355.8,233.7z"/>
		<path class="st21" d="M355.8,233.7c0.8,0.3,2.3,0.6,4.6,0.9c25.6,4.1,39.5,33.4,13.9,49.7c-16.8,10.7-44.6,7.3-54.8-11.2
			c-4.5-8.3-3.3-18,2.3-25.5c4.9-6.6,12.1-10.4,20-12.7C345.6,240.7,352.9,240,355.8,233.7z"/>
		<path class="st18" d="M278.6,257.1c-13.8,13.6-33.3,12.6-46-0.8c-5.2-5.5,0.1-14.5,7.6-12.3c2.9,0.8,4.6,3.8,6.7,5.1
			c8.2,5.2,15.6,2.6,22.1-3.5C276,239.1,286.4,249.5,278.6,257.1z"/>
		<path class="st23" d="M97.2,327.8h48.3c7.8,0,14.2,6.4,14.2,14.2v19.4c0,7.8-6.4,14.2-14.2,14.2H97.2c-7.8,0-14.2-6.4-14.2-14.2
			V342C83,334.1,89.4,327.8,97.2,327.8z"/>
		<path class="st24" d="M231.9,327.7l48.3,0.1c7.8,0,14.1,6.4,14.1,14.2l0,19.5c0,7.8-6.4,14.1-14.2,14.1l-48.3-0.1
			c-7.8,0-14.1-6.4-14.1-14.2l0-19.5C217.7,334,224.1,327.7,231.9,327.7z"/>
		<path class="st22" d="M366.5,327.8h48.3c7.8,0,14.2,6.4,14.2,14.2v19.4c0,7.8-6.4,14.2-14.2,14.2h-48.3c-7.8,0-14.2-6.4-14.2-14.2
			v-19.4C352.3,334.1,358.7,327.8,366.5,327.8z"/>
	</g>
</g>
</svg>
